<svg width="22" height="18" viewBox="0 0 22 18" fill="none" xmlns="http://www.w3.org/2000/svg">
<path d="M21 3.4V14.6C21 15.2365 20.7569 15.847 20.3241 16.2971C19.8913 16.7471 19.3043 17 18.6923 17H3.30769C2.69565 17 2.10868 16.7471 1.67591 16.2971C1.24313 15.847 1 15.2365 1 14.6V3.4M21 3.4C21 2.76348 20.7569 2.15303 20.3241 1.70294C19.8913 1.25286 19.3043 1 18.6923 1H3.30769C2.69565 1 2.10868 1.25286 1.67591 1.70294C1.24313 2.15303 1 2.76348 1 3.4M21 3.4V3.6592C21 4.06896 20.8992 4.4719 20.7071 4.82965C20.515 5.1874 20.238 5.48804 19.9026 5.70293L12.2103 10.6256C11.8464 10.8587 11.4274 10.9821 11 10.9821C10.5726 10.9821 10.1536 10.8587 9.78974 10.6256L2.09744 5.704C1.76197 5.48911 1.48499 5.18847 1.29289 4.83072C1.10079 4.47297 0.999956 4.07002 1 3.66027V3.4" stroke="white" stroke-width="1.5" stroke-linecap="round" stroke-linejoin="round"/>
</svg>
