<svg width="63" height="37" viewBox="0 0 63 37" fill="none" xmlns="http://www.w3.org/2000/svg">
<path d="M1.66102 34.1294C1.14528 33.8303 0.738889 33.4213 0.443333 32.9009C0.147778 32.3806 0 31.7991 0 31.1567C0 30.5142 0.147778 29.9328 0.443333 29.4124C0.738889 28.892 1.14528 28.4815 1.66102 28.1839C2.17677 27.8863 2.75606 27.7353 3.39741 27.7353C4.03877 27.7353 4.61658 27.8833 5.1338 28.1793C5.64954 28.4754 6.05593 28.8828 6.35149 29.4032C6.64704 29.9236 6.79482 30.5081 6.79482 31.1582C6.79482 31.8083 6.64704 32.3928 6.35149 32.9131C6.05593 33.4335 5.64954 33.8425 5.1338 34.137C4.61658 34.4331 4.03877 34.5811 3.39741 34.5811C2.75606 34.5811 2.17677 34.4285 1.66102 34.1294ZM4.8811 33.7403C5.32295 33.4839 5.67171 33.1283 5.92589 32.6751C6.18154 32.2218 6.30863 31.7167 6.30863 31.1567C6.30863 30.5966 6.18154 30.0915 5.92589 29.6382C5.67023 29.185 5.32295 28.8294 4.8811 28.5731C4.43924 28.3167 3.94419 28.187 3.39741 28.187C2.84916 28.187 2.3541 28.3152 1.90781 28.5731C1.463 28.8294 1.11277 29.185 0.857111 29.6382C0.601455 30.0915 0.474366 30.5966 0.474366 31.1567C0.474366 31.7167 0.601455 32.2218 0.857111 32.6751C1.11129 33.1283 1.46152 33.4839 1.90781 33.7403C2.35262 33.9966 2.84916 34.1264 3.39741 34.1264C3.94419 34.1248 4.43924 33.9966 4.8811 33.7403Z" fill="white"/>
<path d="M11.9758 29.7832C12.3423 29.9984 12.6305 30.3006 12.8388 30.6897C13.0472 31.0788 13.1521 31.5199 13.1521 32.0143C13.1521 32.5087 13.0472 32.9498 12.8388 33.3343C12.6305 33.7204 12.3423 34.0226 11.9758 34.2408C11.6078 34.459 11.1985 34.5689 10.7433 34.5689C10.3074 34.5689 9.9143 34.4606 9.56258 34.2454C9.21087 34.0302 8.93896 33.7296 8.74537 33.3435V34.5292H8.29761V27.3766H8.76458V30.6454C8.95817 30.2731 9.22861 29.9816 9.57736 29.7725C9.92612 29.5635 10.3148 29.4597 10.7448 29.4597C11.197 29.4597 11.6078 29.5681 11.9758 29.7832ZM11.7231 33.8654C12.0216 33.6853 12.2566 33.4351 12.428 33.1131C12.5994 32.7911 12.6851 32.4263 12.6851 32.0143C12.6851 31.6038 12.5994 31.2376 12.428 30.9156C12.2566 30.5936 12.0216 30.3433 11.7231 30.1632C11.4246 29.9831 11.0877 29.8931 10.7153 29.8931C10.3414 29.8931 10.0074 29.9831 9.71184 30.1632C9.41628 30.3433 9.1828 30.5936 9.01137 30.9156C8.83995 31.2376 8.75424 31.6038 8.75424 32.0143C8.75424 32.4263 8.83995 32.7926 9.01137 33.1131C9.1828 33.4351 9.41628 33.6853 9.71184 33.8654C10.0074 34.0455 10.3414 34.1355 10.7153 34.1355C11.0877 34.1355 11.4246 34.0455 11.7231 33.8654Z" fill="white"/>
<path d="M13.2216 36.3514C13.0442 36.2934 12.8994 36.2094 12.7871 36.1011L12.9733 35.744C13.1728 35.9302 13.4373 36.0233 13.7669 36.0233C14.0536 36.0233 14.2708 35.9363 14.4201 35.7623C14.5693 35.5883 14.6447 35.3381 14.6447 35.01V29.4963H15.1117V35.0298C15.1117 35.4601 14.9964 35.802 14.7659 36.0568C14.5353 36.3102 14.2117 36.4368 13.795 36.4368C13.5895 36.4383 13.3989 36.4093 13.2216 36.3514ZM14.6077 28.1626C14.5324 28.0893 14.4954 27.9978 14.4954 27.8879C14.4954 27.778 14.5324 27.6849 14.6077 27.6086C14.6831 27.5308 14.7732 27.4926 14.8782 27.4926C14.9846 27.4926 15.0747 27.5293 15.1486 27.604C15.224 27.6788 15.2609 27.7704 15.2609 27.8787C15.2609 27.9886 15.224 28.0817 15.1486 28.158C15.0732 28.2343 14.9831 28.274 14.8782 28.274C14.7718 28.274 14.6816 28.2374 14.6077 28.1626Z" fill="white"/>
<path d="M21.1972 32.1303H17.0062C17.018 32.5225 17.1155 32.8704 17.2958 33.1756C17.4761 33.4808 17.72 33.7174 18.0288 33.8837C18.3362 34.0516 18.6835 34.134 19.0692 34.134C19.3869 34.134 19.681 34.0745 19.9514 33.9554C20.2218 33.8364 20.4479 33.6609 20.6282 33.4305L20.8987 33.7479C20.6873 34.0119 20.4213 34.2133 20.1007 34.3552C19.78 34.4972 19.4327 34.5674 19.0603 34.5674C18.5741 34.5674 18.1426 34.4575 17.7628 34.2393C17.383 34.021 17.086 33.7189 16.8717 33.3328C16.6574 32.9467 16.5496 32.5072 16.5496 32.0128C16.5496 31.5244 16.65 31.0865 16.8525 30.6973C17.055 30.3082 17.3328 30.0045 17.6874 29.7863C18.0421 29.568 18.4396 29.4582 18.883 29.4582C19.3248 29.4582 19.7209 29.5665 20.0726 29.7817C20.4243 29.9969 20.7006 30.2975 20.9031 30.6836C21.1055 31.0697 21.206 31.5061 21.206 31.9945L21.1972 32.1303ZM17.9579 30.1205C17.6845 30.2776 17.4643 30.4989 17.3003 30.7858C17.1348 31.0712 17.0402 31.3947 17.0151 31.7549H20.7494C20.7302 31.3947 20.6371 31.0742 20.4701 30.7904C20.3016 30.5081 20.0814 30.2868 19.8066 30.125C19.5332 29.9648 19.2243 29.8839 18.883 29.8839C18.5401 29.8839 18.2327 29.9618 17.9579 30.1205Z" fill="white"/>
<path d="M25.0719 34.2118C24.9537 34.3278 24.8059 34.4163 24.6286 34.4774C24.4512 34.5384 24.2665 34.5689 24.0729 34.5689C23.6488 34.5689 23.3222 34.4484 23.0932 34.2072C22.8626 33.9661 22.7474 33.6304 22.7474 33.2001V29.9129H21.8503V29.4979H22.7474V28.3991H23.2143V29.4979H24.7645V29.9129H23.2143V33.1512C23.2143 33.4793 23.2912 33.7281 23.4434 33.8975C23.5956 34.0684 23.8217 34.1523 24.1202 34.1523C24.4246 34.1523 24.6773 34.0592 24.8768 33.873L25.0719 34.2118Z" fill="white"/>
<path d="M29.2009 29.0553H27.1099V27.7826H32.8037V29.0553H30.7127V34.5308H29.2009V29.0553Z" fill="white"/>
<path d="M37.8918 32.3607H34.0924C34.1604 32.6827 34.3229 32.936 34.5786 33.1222C34.8343 33.3083 35.1505 33.4014 35.5303 33.4014C35.7919 33.4014 36.0239 33.3618 36.2263 33.2809C36.4288 33.2 36.6165 33.0733 36.7908 32.8994L37.5652 33.7662C37.0923 34.3247 36.4007 34.6055 35.4933 34.6055C34.9274 34.6055 34.4264 34.491 33.9904 34.2637C33.5545 34.0363 33.219 33.7189 32.9826 33.3145C32.7462 32.91 32.6279 32.4507 32.6279 31.9364C32.6279 31.4283 32.7447 30.9704 32.9782 30.563C33.2117 30.1555 33.5323 29.8366 33.9402 29.6092C34.3481 29.3818 34.8032 29.2674 35.3071 29.2674C35.7992 29.2674 36.2441 29.3772 36.6416 29.5955C37.0391 29.8137 37.3524 30.1265 37.58 30.5355C37.8075 30.9445 37.9199 31.4176 37.9199 31.9578C37.9184 31.9761 37.9095 32.1104 37.8918 32.3607ZM34.484 30.6927C34.2594 30.885 34.1234 31.149 34.0732 31.4832H36.547C36.4968 31.1551 36.3608 30.8941 36.1362 30.6973C35.9116 30.5019 35.6382 30.4028 35.3145 30.4028C34.985 30.4043 34.7086 30.5004 34.484 30.6927ZM35.6884 27.2911H37.2563L35.5672 28.6798H34.4279L35.6884 27.2911Z" fill="white"/>
<path d="M46.8192 29.8397C47.1886 30.2227 47.3748 30.795 47.3748 31.5595V34.5292H45.9177V31.7915C45.9177 31.381 45.835 31.0727 45.6709 30.8713C45.5054 30.6683 45.2705 30.5676 44.966 30.5676C44.6232 30.5676 44.3528 30.682 44.1533 30.9094C43.9538 31.1383 43.8547 31.4771 43.8547 31.9258V34.5277H42.3977V31.79C42.3977 30.9735 42.0799 30.5661 41.446 30.5661C41.1105 30.5661 40.8416 30.6805 40.6435 30.9079C40.444 31.1368 40.345 31.4756 40.345 31.9242V34.5262H38.8879V29.3406H40.2785V29.9389C40.4647 29.7206 40.6938 29.5528 40.9642 29.4368C41.2346 29.3208 41.5317 29.2628 41.8553 29.2628C42.21 29.2628 42.5307 29.3345 42.8173 29.4795C43.104 29.6245 43.3331 29.8351 43.5075 30.1113C43.7129 29.8412 43.973 29.6321 44.2863 29.4841C44.601 29.3361 44.9439 29.2628 45.3177 29.2628C45.9502 29.2674 46.4497 29.4582 46.8192 29.8397Z" fill="white"/>
<path d="M49.7036 34.2652C49.2839 34.0378 48.9559 33.7204 48.7194 33.316C48.483 32.9116 48.3647 32.4522 48.3647 31.9379C48.3647 31.4237 48.483 30.9643 48.7194 30.5599C48.9559 30.1555 49.2839 29.8381 49.7036 29.6107C50.1233 29.3833 50.5977 29.2689 51.1267 29.2689C51.6558 29.2689 52.1286 29.3833 52.5454 29.6107C52.9621 29.8396 53.2887 30.1555 53.5251 30.5599C53.7616 30.9643 53.8798 31.4237 53.8798 31.9379C53.8798 32.4522 53.7616 32.9116 53.5251 33.316C53.2887 33.7204 52.9621 34.0378 52.5454 34.2652C52.1286 34.4941 51.6558 34.607 51.1267 34.607C50.5977 34.607 50.1233 34.4926 49.7036 34.2652ZM52.0474 32.9833C52.2868 32.7223 52.4065 32.3744 52.4065 31.9379C52.4065 31.5015 52.2868 31.152 52.0474 30.8926C51.808 30.6317 51.5006 30.5019 51.1282 30.5019C50.7543 30.5019 50.4469 30.6317 50.2046 30.8926C49.9622 31.1536 49.841 31.5015 49.841 31.9379C49.841 32.3744 49.9622 32.7239 50.2046 32.9833C50.4469 33.2442 50.7558 33.374 51.1282 33.374C51.5006 33.3724 51.808 33.2427 52.0474 32.9833Z" fill="white"/>
<path d="M54.9263 28.3792C54.7578 28.219 54.6736 28.0191 54.6736 27.781C54.6736 27.5429 54.7578 27.3446 54.9263 27.1828C55.0948 27.0226 55.312 26.9417 55.5795 26.9417C55.8469 26.9417 56.0657 27.0195 56.2326 27.1736C56.4011 27.3278 56.4853 27.5201 56.4853 27.752C56.4853 28.0023 56.4011 28.2098 56.2326 28.3731C56.0642 28.5364 55.8469 28.6188 55.5795 28.6188C55.3135 28.6203 55.0948 28.541 54.9263 28.3792ZM54.8524 29.3437H56.3095V34.5292H54.8524V29.3437Z" fill="white"/>
<path d="M62.222 29.8457C62.6048 30.2318 62.7954 30.8026 62.7954 31.561V34.5307H61.3398V31.793C61.3398 31.3825 61.2526 31.0742 61.0782 30.8728C60.9039 30.6698 60.6526 30.5691 60.3216 30.5691C59.9551 30.5691 59.6625 30.6866 59.4438 30.9201C59.2266 31.1551 59.1172 31.503 59.1172 31.9654V34.5292H57.6616V29.3437H59.0522V29.951C59.2458 29.7328 59.4852 29.5634 59.7704 29.4444C60.0571 29.3254 60.3704 29.2658 60.7132 29.2658C61.3369 29.2674 61.8393 29.4596 62.222 29.8457Z" fill="white"/>
<path d="M31.4618 16.3143C29.4535 16.3143 27.8191 14.6265 27.8191 12.5526C27.8191 10.4787 29.4535 8.79089 31.4618 8.79089C33.4701 8.79089 35.1045 10.4787 35.1045 12.5526C35.1045 14.6265 33.4716 16.3143 31.4618 16.3143ZM31.4618 9.72789C29.953 9.72789 28.7264 10.9945 28.7264 12.5526C28.7264 14.1107 29.953 15.3773 31.4618 15.3773C32.9706 15.3773 34.1972 14.1107 34.1972 12.5526C34.1972 10.9945 32.9706 9.72789 31.4618 9.72789Z" fill="white"/>
<path d="M44.7456 8.94807C41.793 8.00955 40.0521 9.16782 39.0694 10.4985C38.564 9.98273 37.8695 9.66378 37.104 9.66378C36.9237 9.66378 36.7449 9.6821 36.5661 9.71872C36.2675 9.14645 35.8804 8.63523 35.4282 8.1942C36.8513 7.40523 37.7985 5.72505 37.7365 4.30583C37.6522 2.39369 34.9819 1.11334 33.7346 0.696725C32.4874 0.278588 26.8497 -0.620255 23.6178 2.55087C20.3859 5.722 18.8357 7.19311 17.222 8.82446C15.6097 10.4573 13.8009 14.7654 18.1781 16.1556C21.1307 17.0941 22.8715 15.9358 23.8542 14.6051C24.3596 15.1209 25.0542 15.4399 25.8182 15.4399C25.9985 15.4399 26.1773 15.4216 26.3561 15.3849C26.6546 15.9572 27.0418 16.4684 27.494 16.9095C26.0709 17.6984 25.1236 19.3786 25.1857 20.7978C25.2699 22.71 27.9403 23.9903 29.1875 24.4069C30.4348 24.8251 36.0725 25.7239 39.3044 22.5528C42.5363 19.3817 44.0879 17.9105 45.7002 16.2792C47.3139 14.6479 49.1227 10.3398 44.7456 8.94807ZM27.0108 14.6402L26.8393 14.2496L26.4477 14.3915C26.2423 14.4663 26.031 14.5044 25.8211 14.5044C24.7793 14.5044 23.9311 13.6285 23.9311 12.5526C23.9311 11.4767 24.7793 10.6008 25.8211 10.6008C26.031 10.6008 26.2423 10.6389 26.4477 10.7137L26.8393 10.8556L27.0108 10.465C27.5014 9.35247 28.3644 8.46126 29.4417 7.95461L29.82 7.77759L29.6826 7.37319C29.6102 7.16107 29.5732 6.94284 29.5732 6.72614C29.5732 5.65028 30.4215 4.77433 31.4633 4.77433C32.5051 4.77433 33.3534 5.65028 33.3534 6.72614C33.3534 6.94284 33.3164 7.16107 33.244 7.37319L33.1066 7.77759L33.4849 7.95461C34.5622 8.46126 35.4252 9.35247 35.9158 10.465L36.0873 10.8556L36.4789 10.7137C36.6843 10.6389 36.8956 10.6008 37.1054 10.6008C38.1473 10.6008 38.9955 11.4767 38.9955 12.5526C38.9955 13.6285 38.1473 14.5044 37.1054 14.5044C36.8956 14.5044 36.6843 14.4663 36.4789 14.3915L36.0873 14.2496L35.9158 14.6402C35.4252 15.7527 34.5622 16.6439 33.4849 17.1506L33.1066 17.3276L33.244 17.732C33.3164 17.9441 33.3534 18.1623 33.3534 18.379C33.3534 19.4549 32.5051 20.3309 31.4633 20.3309C30.4215 20.3309 29.5717 19.4564 29.5717 18.379C29.5717 18.1623 29.6087 17.9441 29.6811 17.732L29.8185 17.3276L29.4402 17.1506C28.3644 16.6439 27.5014 15.7527 27.0108 14.6402Z" fill="white"/>
</svg>
